<svg width="500" height="351" viewBox="0 0 500 351" fill="none" xmlns="http://www.w3.org/2000/svg">
<path d="M423.889 29.5543C423.742 29.3018 423.501 29.1073 423.209 29.0074C390.815 15.3497 356.631 5.6071 321.512 0.0230412C321.196 -0.0300902 320.87 0.00920199 320.581 0.135369C320.291 0.261536 320.051 0.468202 319.896 0.726167C315.238 8.49407 311.009 16.473 307.226 24.6324C269.35 19.3502 230.822 19.3502 192.945 24.6324C189.147 16.4528 184.86 8.47192 180.105 0.726167C179.941 0.475889 179.7 0.275666 179.413 0.150589C179.126 0.0255123 178.804 -0.0188569 178.49 0.0230412C143.309 5.58195 109.065 15.3253 76.6225 29.0074C76.338 29.1182 76.0996 29.3099 75.9423 29.5543C11.1487 118.539 -6.62275 205.257 2.0504 290.961C2.07496 291.176 2.14813 291.385 2.26524 291.573C2.38236 291.761 2.54086 291.925 2.73065 292.054C40.4729 317.704 82.6812 337.279 127.556 349.945C127.879 350.037 128.224 350.033 128.545 349.935C128.865 349.837 129.144 349.649 129.342 349.398C138.97 337.355 147.502 324.604 154.851 311.273C154.949 311.09 155.004 310.89 155.014 310.685C155.024 310.481 154.988 310.278 154.908 310.087C154.828 309.896 154.707 309.723 154.55 309.577C154.394 309.432 154.207 309.318 154.001 309.242C140.519 304.495 127.469 298.774 114.972 292.132C114.751 292.008 114.566 291.837 114.432 291.633C114.298 291.43 114.219 291.199 114.203 290.962C114.186 290.725 114.232 290.487 114.336 290.269C114.44 290.051 114.6 289.86 114.801 289.711C117.437 287.914 120.073 286.039 122.539 284.164C122.757 283.988 123.024 283.873 123.31 283.832C123.596 283.79 123.889 283.824 124.155 283.929C205.955 318.226 294.557 318.226 375.421 283.929C375.679 283.813 375.968 283.767 376.254 283.794C376.539 283.822 376.811 283.923 377.037 284.086C379.503 285.961 382.139 287.914 384.775 289.711C384.976 289.86 385.136 290.051 385.24 290.269C385.344 290.487 385.39 290.725 385.373 290.962C385.357 291.199 385.278 291.43 385.144 291.633C385.011 291.837 384.825 292.008 384.605 292.132C372.14 298.809 359.084 304.506 345.575 309.164C345.369 309.24 345.182 309.354 345.026 309.499C344.87 309.645 344.748 309.818 344.668 310.009C344.588 310.2 344.552 310.403 344.562 310.607C344.572 310.811 344.627 311.011 344.725 311.195C352.202 324.459 360.728 337.202 370.234 349.32C370.433 349.571 370.711 349.759 371.032 349.857C371.352 349.955 371.698 349.958 372.02 349.867C417.025 337.257 459.355 317.679 497.186 291.976C497.379 291.851 497.541 291.688 497.658 291.499C497.776 291.31 497.847 291.099 497.866 290.882C508.24 191.898 480.349 105.882 423.889 29.5543ZM167.095 238.773C142.437 238.773 122.199 217.992 122.199 192.523C122.199 167.054 142.096 146.195 167.095 146.195C192.35 146.195 212.417 167.132 211.992 192.445C211.992 217.992 192.095 238.773 167.095 238.773ZM333.246 238.773C308.587 238.773 288.35 217.992 288.35 192.523C288.35 167.054 308.162 146.195 333.246 146.195C358.5 146.195 378.567 167.132 378.142 192.445C378.142 217.992 358.415 238.773 333.246 238.773Z" fill="white"/>
</svg>
