<svg width="500" height="456" viewBox="0 0 500 456" fill="none" xmlns="http://www.w3.org/2000/svg">
<path d="M334.659 253.458L309.659 228.454C319.508 201.554 314.394 179.202 294.318 161.395C274.242 143.589 252.462 139.042 228.977 147.756L203.977 122.751C210.417 118.584 217.614 115.553 225.568 113.658C233.523 111.764 241.667 110.817 250 110.817C276.894 110.817 299.716 120.194 318.466 138.948C337.216 157.701 346.591 180.528 346.591 207.427C346.591 215.762 345.549 224.002 343.466 232.147C341.383 240.293 338.447 247.397 334.659 253.458ZM407.955 326.768L385.227 304.036C403.788 290.397 419.981 275.148 433.807 258.289C447.633 241.43 457.765 224.476 464.205 207.427C445.265 165.373 416.856 132.128 378.977 107.691C341.098 83.2549 300 71.0366 255.682 71.0366C239.773 71.0366 223.485 72.552 206.818 75.5829C190.152 78.6138 177.083 82.213 167.614 86.3805L141.477 59.6707C154.735 53.6089 171.686 48.3049 192.33 43.7585C212.973 39.2122 233.144 36.939 252.841 36.939C307.008 36.939 356.534 52.3776 401.42 83.2549C446.307 114.132 479.167 155.523 500 207.427C490.152 231.674 477.462 253.837 461.932 273.917C446.402 293.997 428.409 311.614 407.955 326.768ZM440.909 455.202L345.455 361.434C332.197 366.738 317.235 370.811 300.568 373.652C283.902 376.494 267.045 377.915 250 377.915C194.697 377.915 144.508 362.476 99.4318 331.599C54.3561 300.721 21.2121 259.331 0 207.427C7.57576 187.726 18.0871 168.499 31.5341 149.745C44.9811 130.991 61.3636 113.09 80.6818 96.0414L9.09091 24.4366L32.9545 0L463.068 430.197L440.909 455.202ZM103.977 119.91C89.9621 130.139 76.4205 143.589 63.3523 160.258C50.2841 176.928 40.9091 192.651 35.2273 207.427C54.5455 249.48 83.6174 282.726 122.443 307.162C161.269 331.599 205.303 343.817 254.545 343.817C267.045 343.817 279.356 343.059 291.477 341.544C303.598 340.028 312.689 337.755 318.75 334.724L282.386 298.354C278.22 300.248 273.106 301.669 267.045 302.616C260.985 303.563 255.303 304.036 250 304.036C223.485 304.036 200.758 294.754 181.818 276.19C162.879 257.626 153.409 234.705 153.409 207.427C153.409 201.744 153.883 196.061 154.83 190.378C155.777 184.695 157.197 179.58 159.091 175.034L103.977 119.91Z" fill="white"/>
</svg>
