<svg width="500" height="872" viewBox="0 0 500 872" fill="none" xmlns="http://www.w3.org/2000/svg">
<path d="M185.772 596.307C185.772 534.383 191.506 490.042 202.974 463.284C214.441 436.527 237.758 406.712 272.925 373.838C304.269 346.317 328.351 322.617 345.17 302.74C361.989 282.863 370.016 259.546 369.251 232.789C369.251 201.445 358.931 175.452 338.289 154.81C317.648 134.169 288.215 123.848 249.99 123.848C211.001 123.848 181.568 135.698 161.691 159.397C141.814 183.097 127.289 207.178 118.115 231.642L0 181.185C16.0544 132.258 45.4875 89.8283 88.2993 53.897C131.111 17.9656 185.008 0 249.99 0C330.262 0 392.186 22.5526 435.763 67.6579C479.339 112.763 500.745 166.278 499.98 228.202C499.98 266.427 491.953 299.3 475.899 326.822C459.844 354.344 433.851 384.924 397.92 418.561C360.46 454.493 337.907 482.015 330.262 501.127C322.617 520.239 318.412 551.966 317.648 596.307H185.772ZM249.99 871.525C224.762 871.525 203.356 862.733 185.772 845.15C168.189 827.567 159.015 805.779 158.251 779.786C158.251 754.557 167.425 733.151 185.772 715.568C204.12 697.985 225.526 688.811 249.99 688.046C275.218 688.046 297.007 697.22 315.355 715.568C333.702 733.916 342.494 755.322 341.73 779.786C341.73 805.014 332.938 826.802 315.355 845.15C297.771 863.498 275.983 872.29 249.99 871.525Z" fill="white"/>
</svg>
