<svg width="500" height="500" viewBox="0 0 500 500" fill="none" xmlns="http://www.w3.org/2000/svg">
<path d="M250 500C215.417 500 182.917 493.438 152.5 480.312C122.083 467.188 95.625 449.375 73.125 426.875C50.625 404.375 32.8125 377.917 19.6875 347.5C6.5625 317.083 0 284.583 0 250C0 215.417 6.5625 182.917 19.6875 152.5C32.8125 122.083 50.625 95.625 73.125 73.125C95.625 50.625 122.083 32.8125 152.5 19.6875C182.917 6.5625 215.417 0 250 0C284.583 0 317.083 6.5625 347.5 19.6875C377.917 32.8125 404.375 50.625 426.875 73.125C449.375 95.625 467.188 122.083 480.312 152.5C493.438 182.917 500 215.417 500 250C500 284.583 493.438 317.083 480.312 347.5C467.188 377.917 449.375 404.375 426.875 426.875C404.375 449.375 377.917 467.188 347.5 480.312C317.083 493.438 284.583 500 250 500ZM250 462.5C275.421 462.5 299.902 458.229 323.444 449.688C346.981 441.146 368.125 428.75 386.875 412.5L87.5 113.125C71.6667 132.292 59.375 153.577 50.625 176.981C41.875 200.385 37.5 224.725 37.5 250C37.5 309.321 58.0854 359.569 99.2562 400.744C140.431 441.915 190.679 462.5 250 462.5ZM411.875 386.875C427.292 368.125 439.583 346.981 448.75 323.444C457.917 299.902 462.5 275.421 462.5 250C462.5 190.675 441.915 140.427 400.744 99.2562C359.573 58.0854 309.325 37.5 250 37.5C224.725 37.5 200.385 41.875 176.981 50.625C153.577 59.375 132.292 71.875 113.125 88.125L411.875 386.875Z" fill="white"/>
</svg>
