<svg width="500" height="500" viewBox="0 0 500 500" fill="none" xmlns="http://www.w3.org/2000/svg">
<path d="M211.111 366.667L406.944 170.833L368.056 131.944L211.111 288.889L131.944 209.722L93.0556 248.611L211.111 366.667ZM55.5556 500C40.2778 500 27.1991 494.56 16.3194 483.681C5.43981 472.801 0 459.722 0 444.444V55.5556C0 40.2778 5.43981 27.1991 16.3194 16.3194C27.1991 5.43981 40.2778 0 55.5556 0H444.444C459.722 0 472.801 5.43981 483.681 16.3194C494.56 27.1991 500 40.2778 500 55.5556V444.444C500 459.722 494.56 472.801 483.681 483.681C472.801 494.56 459.722 500 444.444 500H55.5556ZM55.5556 444.444H444.444V55.5556H55.5556V444.444Z" fill="white"/>
</svg>
