<svg width="500" height="488" viewBox="0 0 500 488" fill="none" xmlns="http://www.w3.org/2000/svg">
<path d="M167.238 392.54C167.238 394.556 164.919 396.169 161.996 396.169C158.669 396.472 156.351 394.859 156.351 392.54C156.351 390.524 158.669 388.911 161.593 388.911C164.617 388.609 167.238 390.222 167.238 392.54ZM135.887 388.004C135.181 390.02 137.198 392.339 140.222 392.944C142.843 393.952 145.867 392.944 146.472 390.927C147.077 388.911 145.161 386.593 142.137 385.685C139.516 384.98 136.593 385.988 135.887 388.004ZM180.444 386.29C177.52 386.996 175.504 388.911 175.806 391.23C176.109 393.246 178.73 394.556 181.754 393.851C184.677 393.145 186.694 391.23 186.391 389.214C186.089 387.298 183.367 385.988 180.444 386.29ZM246.774 0C106.956 0 0 106.149 0 245.968C0 357.762 70.3629 453.427 170.867 487.097C183.77 489.415 188.306 481.452 188.306 474.899C188.306 468.649 188.004 434.173 188.004 413.004C188.004 413.004 117.44 428.125 102.621 382.964C102.621 382.964 91.129 353.629 74.5968 346.069C74.5968 346.069 51.5121 330.242 76.2097 330.544C76.2097 330.544 101.31 332.56 115.121 356.552C137.198 395.464 174.194 384.274 188.609 377.621C190.927 361.492 197.48 350.302 204.738 343.649C148.387 337.399 91.5323 329.234 91.5323 232.258C91.5323 204.536 99.1935 190.625 115.323 172.883C112.702 166.331 104.133 139.315 117.944 104.435C139.012 97.8831 187.5 131.653 187.5 131.653C207.661 126.008 229.335 123.085 250.806 123.085C272.278 123.085 293.952 126.008 314.113 131.653C314.113 131.653 362.601 97.7823 383.669 104.435C397.48 139.415 388.911 166.331 386.29 172.883C402.419 190.726 412.298 204.637 412.298 232.258C412.298 329.536 352.923 337.298 296.573 343.649C305.847 351.613 313.71 366.734 313.71 390.423C313.71 424.395 313.407 466.431 313.407 474.698C313.407 481.25 318.044 489.214 330.847 486.895C431.653 453.427 500 357.762 500 245.968C500 106.149 386.593 0 246.774 0ZM97.9839 347.681C96.6734 348.69 96.9758 351.008 98.6895 352.923C100.302 354.536 102.621 355.242 103.931 353.931C105.242 352.923 104.94 350.605 103.226 348.69C101.613 347.077 99.2944 346.371 97.9839 347.681ZM87.0968 339.516C86.3911 340.827 87.3992 342.44 89.4153 343.448C91.0282 344.456 93.0444 344.153 93.75 342.742C94.4556 341.431 93.4476 339.819 91.4314 338.81C89.4153 338.206 87.8024 338.508 87.0968 339.516ZM119.758 375.403C118.145 376.714 118.75 379.738 121.069 381.653C123.387 383.972 126.31 384.274 127.621 382.661C128.931 381.351 128.327 378.327 126.31 376.411C124.093 374.093 121.069 373.79 119.758 375.403ZM108.266 360.585C106.653 361.593 106.653 364.214 108.266 366.532C109.879 368.851 112.601 369.859 113.911 368.851C115.524 367.54 115.524 364.919 113.911 362.601C112.5 360.282 109.879 359.274 108.266 360.585Z" fill="white"/>
</svg>
