<svg width="500" height="500" viewBox="0 0 500 500" fill="none" xmlns="http://www.w3.org/2000/svg">
<path d="M390.156 316.327L364.346 290.516C372.749 280.112 378.952 268.407 382.953 255.402C386.955 242.397 388.956 229.092 388.956 215.486H424.97C424.97 233.894 421.969 251.701 415.966 268.908C409.964 286.114 401.361 301.921 390.156 316.327ZM313.325 239.496L281.513 208.283V65.4262C281.513 58.4554 279.154 52.611 274.436 47.8931C269.718 43.1753 263.874 40.8163 256.903 40.8163C249.932 40.8163 244.088 43.1753 239.37 47.8931C234.652 52.611 232.293 58.4554 232.293 65.4262V158.463L196.279 122.449V65.4262C196.279 48.5874 202.169 34.2737 213.95 22.485C225.73 10.6963 240.036 4.80192 256.867 4.80192C273.697 4.80192 288.015 10.6963 299.82 22.485C311.625 34.2737 317.527 48.5874 317.527 65.4262V215.486C317.527 218.687 317.227 222.689 316.627 227.491C316.026 232.293 314.926 236.295 313.325 239.496ZM238.896 460.984V379.352C196.479 374.95 160.864 357.143 132.053 325.93C103.241 294.718 88.8355 257.903 88.8355 215.486H124.85C124.85 251.901 137.755 282.513 163.565 307.323C189.376 332.133 220.488 344.538 256.903 344.538C272.109 344.538 286.737 342.069 300.786 337.131C314.836 332.197 327.619 325.262 339.136 316.327L364.946 342.137C352.541 352.541 338.733 360.858 323.523 367.089C308.309 373.319 292.105 377.407 274.91 379.352V460.984H238.896ZM477.191 500L0 22.8091L22.8091 0L500 477.191L477.191 500Z" fill="white"/>
</svg>
