<svg width="500" height="500" viewBox="0 0 500 500" fill="none" xmlns="http://www.w3.org/2000/svg">
<path d="M84.375 500V415.625H0V378.125H84.375V268.75H0V231.25H84.375V121.875H0V84.375H84.375V0H121.875V84.375H231.25V0H268.75V84.375H378.125V0H415.625V84.375H500V121.875H415.625V231.25H500V268.75H415.625V378.125H500V415.625H415.625V500H378.125V415.625H268.75V500H231.25V415.625H121.875V500H84.375ZM121.875 378.125H231.25V268.75H121.875V378.125ZM268.75 378.125H378.125V268.75H268.75V378.125ZM121.875 231.25H231.25V121.875H121.875V231.25ZM268.75 231.25H378.125V121.875H268.75V231.25Z" fill="white"/>
</svg>
