<svg width="500" height="500" viewBox="0 0 500 500" fill="none" xmlns="http://www.w3.org/2000/svg">
<path d="M192.5 500L180 421.25C172.083 418.333 163.75 414.375 155 409.375C146.25 404.375 138.542 399.167 131.875 393.75L58.125 427.5L0 325L67.5 275.625C66.6667 271.875 66.1458 267.604 65.9375 262.812C65.7292 258.021 65.625 253.75 65.625 250C65.625 246.25 65.7292 241.979 65.9375 237.188C66.1458 232.396 66.6667 228.125 67.5 224.375L0 175L58.125 72.5L131.875 106.25C138.542 100.833 146.25 95.625 155 90.625C163.75 85.625 172.083 81.875 180 79.375L192.5 0H307.5L320 78.75C327.917 81.6667 336.354 85.5208 345.312 90.3125C354.271 95.1042 361.875 100.417 368.125 106.25L441.875 72.5L500 175L432.5 223.125C433.333 227.292 433.854 231.771 434.062 236.562C434.271 241.354 434.375 245.833 434.375 250C434.375 254.167 434.271 258.542 434.062 263.125C433.854 267.708 433.333 272.083 432.5 276.25L500 325L441.875 427.5L368.125 393.75C361.458 399.167 353.854 404.479 345.312 409.688C336.771 414.896 328.333 418.75 320 421.25L307.5 500H192.5ZM250 331.25C272.5 331.25 291.667 323.333 307.5 307.5C323.333 291.667 331.25 272.5 331.25 250C331.25 227.5 323.333 208.333 307.5 192.5C291.667 176.667 272.5 168.75 250 168.75C227.5 168.75 208.333 176.667 192.5 192.5C176.667 208.333 168.75 227.5 168.75 250C168.75 272.5 176.667 291.667 192.5 307.5C208.333 323.333 227.5 331.25 250 331.25Z" fill="white"/>
</svg>
