<svg width="500" height="500" viewBox="0 0 500 500" fill="none" xmlns="http://www.w3.org/2000/svg">
<path d="M252.5 395.625C259.167 395.625 264.792 393.333 269.375 388.75C273.958 384.167 276.25 378.542 276.25 371.875C276.25 365.208 273.958 359.583 269.375 355C264.792 350.417 259.167 348.125 252.5 348.125C245.833 348.125 240.208 350.417 235.625 355C231.042 359.583 228.75 365.208 228.75 371.875C228.75 378.542 231.042 384.167 235.625 388.75C240.208 393.333 245.833 395.625 252.5 395.625ZM230.625 304.375H267.5C267.5 293.542 268.854 283.646 271.562 274.688C274.271 265.729 282.708 255.417 296.875 243.75C309.792 232.917 318.958 222.292 324.375 211.875C329.792 201.458 332.5 190 332.5 177.5C332.5 155.417 325.312 137.708 310.938 124.375C296.562 111.042 277.5 104.375 253.75 104.375C233.333 104.375 215.312 109.479 199.688 119.688C184.062 129.896 172.708 143.958 165.625 161.875L198.75 174.375C203.333 162.708 210.208 153.646 219.375 147.188C228.542 140.729 239.375 137.5 251.875 137.5C266.042 137.5 277.5 141.354 286.25 149.062C295 156.771 299.375 166.667 299.375 178.75C299.375 187.917 296.667 196.562 291.25 204.688C285.833 212.812 277.917 221.25 267.5 230C255 240.833 245.729 251.562 239.688 262.188C233.646 272.812 230.625 286.875 230.625 304.375ZM250 500C215.833 500 183.542 493.438 153.125 480.312C122.708 467.188 96.1458 449.271 73.4375 426.562C50.7292 403.854 32.8125 377.292 19.6875 346.875C6.5625 316.458 0 284.167 0 250C0 215.417 6.5625 182.917 19.6875 152.5C32.8125 122.083 50.7292 95.625 73.4375 73.125C96.1458 50.625 122.708 32.8125 153.125 19.6875C183.542 6.5625 215.833 0 250 0C284.583 0 317.083 6.5625 347.5 19.6875C377.917 32.8125 404.375 50.625 426.875 73.125C449.375 95.625 467.188 122.083 480.312 152.5C493.438 182.917 500 215.417 500 250C500 284.167 493.438 316.458 480.312 346.875C467.188 377.292 449.375 403.854 426.875 426.562C404.375 449.271 377.917 467.188 347.5 480.312C317.083 493.438 284.583 500 250 500ZM250 462.5C309.167 462.5 359.375 441.771 400.625 400.312C441.875 358.854 462.5 308.75 462.5 250C462.5 190.833 441.875 140.625 400.625 99.375C359.375 58.125 309.167 37.5 250 37.5C191.25 37.5 141.146 58.125 99.6875 99.375C58.2292 140.625 37.5 190.833 37.5 250C37.5 308.75 58.2292 358.854 99.6875 400.312C141.146 441.771 191.25 462.5 250 462.5Z" fill="white"/>
</svg>
