<svg width="500" height="341" viewBox="0 0 500 341" fill="none" xmlns="http://www.w3.org/2000/svg">
<path d="M250.068 266.937C276.917 266.937 299.716 257.543 318.466 238.755C337.216 219.968 346.591 197.155 346.591 170.317C346.591 143.48 337.193 120.69 318.398 101.947C299.602 83.2049 276.78 73.8337 249.932 73.8337C223.083 73.8337 200.284 83.2276 181.534 102.015C162.784 120.803 153.409 143.616 153.409 170.454C153.409 197.291 162.807 220.081 181.602 238.824C200.398 257.566 223.22 266.937 250.068 266.937ZM249.864 233.996C232.152 233.996 217.14 227.798 204.83 215.401C192.519 203.009 186.364 187.958 186.364 170.249C186.364 152.544 192.564 137.539 204.966 125.233C217.364 112.928 232.42 106.775 250.136 106.775C267.848 106.775 282.86 112.973 295.17 125.37C307.481 137.762 313.636 152.813 313.636 170.522C313.636 188.227 307.436 203.232 295.034 215.538C282.636 227.843 267.58 233.996 249.864 233.996ZM250 340.771C194.697 340.771 144.697 325.058 100 293.631C55.303 262.204 21.9697 221.122 0 170.385C21.9697 119.648 55.303 78.5666 100 47.14C144.697 15.7133 194.697 0 250 0C305.303 0 355.303 15.7133 400 47.14C444.697 78.5666 478.03 119.648 500 170.385C478.03 221.122 444.697 262.204 400 293.631C355.303 325.058 305.303 340.771 250 340.771ZM249.903 306.694C295.801 306.694 337.973 294.293 376.42 269.493C414.867 244.692 444.129 211.657 464.205 170.385C444.129 129.114 414.9 96.0784 376.517 71.2779C338.134 46.4774 295.994 34.0771 250.097 34.0771C204.199 34.0771 162.027 46.4774 123.58 71.2779C85.1326 96.0784 55.6818 129.114 35.2273 170.385C55.6818 211.657 85.1004 244.692 123.483 269.493C161.866 294.293 204.006 306.694 249.903 306.694Z" fill="white"/>
</svg>
